<svg xmlns="http://www.w3.org/2000/svg" viewBox="0 0 1200 800" preserveAspectRatio="xMidYMid slice">
  <defs>
    <linearGradient id="sky" x1="0%" y1="0%" x2="0%" y2="100%">
      <stop offset="0%" style="stop-color:#87CEEB"/>
      <stop offset="100%" style="stop-color:#E0F7FA"/>
    </linearGradient>
    <linearGradient id="water" x1="0%" y1="0%" x2="0%" y2="100%">
      <stop offset="0%" style="stop-color:#00D4FF"/>
      <stop offset="100%" style="stop-color:#00B4D8"/>
    </linearGradient>
  </defs>
  <rect width="1200" height="450" fill="url(#sky)"/>
  <rect y="400" width="1200" height="400" fill="url(#water)"/>
  <ellipse cx="100" cy="100" rx="60" ry="60" fill="#fff" opacity="0.8"/>
  <ellipse cx="130" cy="110" rx="50" ry="40" fill="#fff" opacity="0.6"/>
  <ellipse cx="300" cy="150" rx="80" ry="40" fill="#fff" opacity="0.5"/>
  <path d="M0 480 Q300 440 600 460 Q900 480 1200 450 L1200 530 L0 530 Z" fill="#F5DEB3"/>
  <path d="M0 510 Q200 500 400 510 Q600 520 800 510 Q1000 500 1200 510" stroke="#fff" stroke-width="3" fill="none" opacity="0.5"/>
  <g transform="translate(150, 320) scale(0.7)">
    <rect x="20" y="60" width="15" height="120" fill="#8B4513"/>
    <ellipse cx="27" cy="35" rx="55" ry="28" fill="#228B22" transform="rotate(-25 27 35)"/>
    <ellipse cx="27" cy="45" rx="50" ry="25" fill="#32CD32" transform="rotate(20 27 45)"/>
  </g>
  <g transform="translate(950, 300) scale(0.8)">
    <rect x="20" y="60" width="18" height="140" fill="#8B4513"/>
    <ellipse cx="29" cy="35" rx="60" ry="30" fill="#228B22" transform="rotate(25 29 35)"/>
    <ellipse cx="29" cy="45" rx="55" ry="28" fill="#32CD32" transform="rotate(-20 29 45)"/>
  </g>
  <text x="600" y="680" text-anchor="middle" font-family="Georgia, serif" font-size="64" font-weight="bold" fill="#fff" opacity="0.95">Cancún</text>
  <text x="600" y="740" text-anchor="middle" font-family="Arial, sans-serif" font-size="24" fill="#fff" opacity="0.85">Caribbean Paradise</text>
</svg>