<svg xmlns="http://www.w3.org/2000/svg" viewBox="0 0 1200 800" preserveAspectRatio="xMidYMid slice">
  <defs>
    <linearGradient id="colonialsky" x1="0%" y1="0%" x2="0%" y2="100%">
      <stop offset="0%" style="stop-color:#87CEEB"/>
      <stop offset="100%" style="stop-color:#B0E0E6"/>
    </linearGradient>
  </defs>
  <rect width="1200" height="800" fill="url(#colonialsky)"/>
  <!-- Cobblestone street -->
  <rect y="550" width="1200" height="250" fill="#696969"/>
  <ellipse cx="100" cy="650" rx="30" ry="20" fill="#808080" opacity="0.5"/>
  <ellipse cx="200" cy="680" rx="25" ry="18" fill="#808080" opacity="0.4"/>
  <ellipse cx="350" cy="640" rx="28" ry="19" fill="#808080" opacity="0.5"/>
  <!-- Colonial buildings -->
  <rect x="50" y="250" width="200" height="300" fill="#92400E"/>
  <rect x="70" y="280" width="50" height="80" fill="#8B4513"/>
  <rect x="150" y="280" width="50" height="80" fill="#8B4513"/>
  <rect x="70" y="400" width="50" height="80" fill="#8B4513"/>
  <rect x="150" y="400" width="50" height="80" fill="#8B4513"/>
  <rect x="100" y="450" width="80" height="100" fill="#4A3728"/>
  <rect x="300" y="200" width="180" height="350" fill="#D97706"/>
  <polygon points="390,100 300,200 480,200" fill="#D97706"/>
  <circle cx="390" cy="150" r="20" fill="#FFD700"/>
  <rect x="350" y="350" width="60" height="100" fill="#8B4513"/>
  <rect x="550" y="280" width="150" height="270" fill="#E8E4E1"/>
  <rect x="750" y="220" width="200" height="330" fill="#92400E"/>
  <rect x="1000" y="300" width="180" height="250" fill="#D97706"/>
  <text x="600" y="700" text-anchor="middle" font-family="Georgia, serif" font-size="64" font-weight="bold" fill="#fff" stroke="#333" stroke-width="2">Todos Santos</text>
  <text x="600" y="760" text-anchor="middle" font-family="Arial, sans-serif" font-size="24" fill="#fff" stroke="#333" stroke-width="1">Artist's Oasis</text>
</svg>